<?xml version="1.0" encoding="utf-8"?>
<!-- Generator: Adobe Illustrator 28.0.0, SVG Export Plug-In . SVG Version: 6.00 Build 0)  -->
<svg version="1.1" id="Layer_1" xmlns="http://www.w3.org/2000/svg" xmlns:xlink="http://www.w3.org/1999/xlink" x="0px" y="0px"
	 viewBox="0 0 100 100" style="enable-background:new 0 0 100 100;" xml:space="preserve">
<style type="text/css">
	.st0{fill:none;stroke:#231F20;stroke-width:2;stroke-miterlimit:10;}
	.st1{fill:none;stroke:#231F20;stroke-width:2;stroke-linecap:round;stroke-linejoin:round;stroke-miterlimit:10;}
	.st2{fill:none;stroke:#231F20;stroke-width:2;stroke-linejoin:round;stroke-miterlimit:10;}
</style>
<g>
	<g>
		<g>
			<g>
				<path id="VEGAN_00000093860999599290439910000010580574954088006823_" class="st0" d="M98.3,50c0,26.7-21.6,48.3-48.3,48.3
					S1.8,76.7,1.8,50S23.4,1.7,50,1.7S98.3,23.3,98.3,50z"/>
			</g>
		</g>
	</g>
	<g>
		<g>
			<line class="st1" x1="27.4" y1="92.6" x2="72.7" y2="7.4"/>
		</g>
	</g>
	<g>
		<path class="st2" d="M6.6,29c7.4,2.4,9,10,16.4,10c8.7,0,9.6-10.8,27-10.8l0,0l0,0C67.3,28.2,68.2,39,77,39c7.4,0,9-7.7,16.5-10.1
			"/>
		<path class="st2" d="M2.9,39.5c10.7,0.7,11.6,10.8,20,10.8c8.7,0,9.6-10.8,27-10.8l0,0l0,0c17.3,0,18.2,10.8,27,10.8
			c8.5,0,9.4-10.1,20.2-10.8"/>
		<path class="st2" d="M1.7,50.6c11.9,0,12.5,10.8,21.3,10.8s9.6-10.8,27-10.8l0,0l0,0c17.3,0,18.2,10.8,27,10.8s9.4-10.8,21.3-10.8
			"/>
		<path class="st2" d="M3.2,61.8C13.7,62.7,14.6,72.5,23,72.5c8.7,0,9.6-10.8,27-10.8l0,0l0,0c17.3,0,18.2,10.8,27,10.8
			c8.4,0,9.3-10,19.9-10.7"/>
	</g>
</g>
</svg>
