<?xml version="1.0" encoding="utf-8"?>
<!-- Generator: Adobe Illustrator 28.0.0, SVG Export Plug-In . SVG Version: 6.00 Build 0)  -->
<svg version="1.1" id="Layer_1" xmlns="http://www.w3.org/2000/svg" xmlns:xlink="http://www.w3.org/1999/xlink" x="0px" y="0px"
	 viewBox="0 0 100 100" style="enable-background:new 0 0 100 100;" xml:space="preserve">
<style type="text/css">
	.st0{fill:none;stroke:#231F20;stroke-width:2;stroke-linecap:round;stroke-linejoin:round;stroke-miterlimit:10;}
	.st1{fill:#FFFFFF;stroke:#231F20;stroke-width:2;stroke-linecap:round;stroke-linejoin:round;stroke-miterlimit:10;}
</style>
<g id="VEGAN">
	<g>
		<circle id="VEGAN_16_" class="st0" cx="50" cy="50" r="48.6"/>
		<g>
			<path class="st0" d="M50,67.8c-0.7-5.2-2-10.5-4.5-15c-7.7-14-26.6-26.3-26.6-26.3s-2.2,27.4,5.7,41.7C32.6,82.4,50,88.8,50,88.8
				S45.9,77,40.8,66.1c-5.2-11-11.6-18.4-11.6-18.4s6.4,7.4,11.6,18.4C45.9,77,50,88.8,50,88.8s0,0,0-0.1
				C49.9,87.9,48.6,78.2,50,67.8z"/>
			<path class="st0" d="M50,88.7C50,88.7,50,88.8,50,88.7c0,0.1,4.1-11.7,9.3-22.6c5.2-11,11.6-18.4,11.6-18.4s-6.4,7.4-11.6,18.4
				C54.1,77,50,88.8,50,88.7c0,0.1,17.5-6.3,25.4-20.6c7.9-14.2,5.7-41.7,5.7-41.7S62.2,38.7,54.5,52.7c-2.5,4.5-3.8,9.9-4.5,15.1"
				/>
			<path class="st1" d="M50,67.8c-1.4,10.4-0.1,20.2,0,21"/>
		</g>
	</g>
</g>
</svg>
